<?xml version="1.0" encoding="UTF-8"?><svg id="Layer_1" xmlns="http://www.w3.org/2000/svg" width="60.59" height="50.6" xmlns:xlink="http://www.w3.org/1999/xlink" viewBox="0 0 60.59 50.6"><defs><radialGradient id="Gold_Radial" cx="30.3" cy="25.3" fx="30.3" fy="25.3" r="27.91" gradientUnits="userSpaceOnUse"><stop offset="0" stop-color="#fffbcc"/><stop offset=".11" stop-color="#faf1ba"/><stop offset=".34" stop-color="#efd98e"/><stop offset=".37" stop-color="#eed688"/><stop offset=".69" stop-color="#ebbb10"/><stop offset="1" stop-color="#c3922e"/></radialGradient><radialGradient id="Gold_Radial-2" cx="21.29" cy="29.02" fx="21.29" fy="29.02" r="6.53" xlink:href="#Gold_Radial"/><radialGradient id="Gold_Radial-3" cx="39.31" cy="21.57" fx="39.31" fy="21.57" r="6.53" xlink:href="#Gold_Radial"/><radialGradient id="Gold_Radial-4" cx="21.28" cy="21.57" fx="21.28" fy="21.57" r="6.53" xlink:href="#Gold_Radial"/><radialGradient id="Gold_Radial-5" cx="39.31" cy="29.02" fx="39.31" fy="29.02" r="6.53" xlink:href="#Gold_Radial"/><radialGradient id="Gold_Radial-6" cx="30.3" cy="25.3" fx="30.3" fy="25.3" r="10.86" xlink:href="#Gold_Radial"/><radialGradient id="Gold_Radial-7" cx="30.3" cy="25.3" fx="30.3" fy="25.3" r="3.75" xlink:href="#Gold_Radial"/></defs><polygon points="58.37 25.67 36.24 48.37 31.13 43.39 26.28 48.37 2.22 24.93 24.36 2.22 29.47 7.21 34.32 2.22 58.37 25.67" fill="none" stroke="url(#Gold_Radial)" stroke-miterlimit="10" stroke-width="3.15"/><path d="M26.32,31.9c-4.72,2.48-8.59,3.68-9.8,2.85-1.53-1.05,1.71-5.04,7.47-9.45.56-.43,1.15-.87,1.76-1.3-.02.43-.03.86-.03,1.3s0,.87.03,1.3c.06,1.91.26,3.71.58,5.31Z" fill="none" stroke="url(#Gold_Radial-2)" stroke-miterlimit="10" stroke-width="1.9"/><path d="M36.61,25.3c-.56.42-1.15.86-1.76,1.3.02-.42.03-.86.03-1.3s0-.87-.03-1.3c-.06-1.91-.26-3.71-.57-5.3,4.72-2.48,8.58-3.69,9.8-2.85,1.53,1.05-1.71,5.04-7.47,9.45Z" fill="none" stroke="url(#Gold_Radial-3)" stroke-miterlimit="10" stroke-width="1.9"/><path d="M25.74,24c-.02.43-.03.86-.03,1.3s0,.87.03,1.3c-.61-.44-1.2-.87-1.76-1.3-5.75-4.42-9-8.4-7.47-9.45,1.21-.83,5.07.37,9.8,2.85-.31,1.59-.51,3.39-.57,5.3Z" fill="none" stroke="url(#Gold_Radial-4)" stroke-miterlimit="10" stroke-width="1.9"/><path d="M44.08,34.75c-1.21.83-5.08-.38-9.8-2.85.31-1.59.52-3.39.58-5.31.02-.42.03-.86.03-1.3s0-.87-.03-1.3c.61.44,1.2.87,1.76,1.3,5.75,4.41,9,8.4,7.47,9.45Z" fill="none" stroke="url(#Gold_Radial-5)" stroke-miterlimit="10" stroke-width="1.9"/><path d="M34.88,25.3c0,.44,0,.87-.03,1.3-.06,1.91-.26,3.71-.58,5.31-.78,4.04-2.27,6.77-3.98,6.77s-3.2-2.73-3.98-6.77c-.31-1.59-.52-3.39-.58-5.31-.02-.42-.03-.86-.03-1.3s0-.87.03-1.3c.06-1.91.26-3.71.57-5.3.79-4.04,2.28-6.77,3.99-6.77s3.2,2.73,3.99,6.77c.31,1.59.51,3.39.57,5.3.02.43.03.86.03,1.3Z" fill="none" stroke="url(#Gold_Radial-6)" stroke-miterlimit="10" stroke-width="1.9"/><ellipse cx="30.3" cy="25.3" rx="2.88" ry="4.46" fill="url(#Gold_Radial-7)"/></svg>